<?xml version="1.0" encoding="UTF-8" standalone="no"?>
<svg
   xmlns:dc="http://purl.org/dc/elements/1.1/"
   xmlns:cc="http://creativecommons.org/ns#"
   xmlns:rdf="http://www.w3.org/1999/02/22-rdf-syntax-ns#"
   xmlns:svg="http://www.w3.org/2000/svg"
   xmlns="http://www.w3.org/2000/svg"
   xmlns:sodipodi="http://sodipodi.sourceforge.net/DTD/sodipodi-0.dtd"
   xmlns:inkscape="http://www.inkscape.org/namespaces/inkscape"
   width="64"
   height="64"
   version="1.1"
   id="svg14"
   sodipodi:docname="50d.svg"
   inkscape:version="0.92.4 (f8dce91, 2019-08-02)">
  <metadata
     id="metadata20">
    <rdf:RDF>
      <cc:Work
         rdf:about="">
        <dc:format>image/svg+xml</dc:format>
        <dc:type
           rdf:resource="http://purl.org/dc/dcmitype/StillImage" />
        <dc:title></dc:title>
      </cc:Work>
    </rdf:RDF>
  </metadata>
  <defs
     id="defs18" />
  <sodipodi:namedview
     pagecolor="#ffffff"
     bordercolor="#666666"
     borderopacity="1"
     objecttolerance="10"
     gridtolerance="10"
     guidetolerance="10"
     inkscape:pageopacity="0"
     inkscape:pageshadow="2"
     inkscape:window-width="3718"
     inkscape:window-height="2119"
     id="namedview16"
     showgrid="false"
     inkscape:pagecheckerboard="true"
     inkscape:zoom="29.5"
     inkscape:cx="16.847579"
     inkscape:cy="19.18865"
     inkscape:window-x="0"
     inkscape:window-y="0"
     inkscape:window-maximized="1"
     inkscape:current-layer="g12" />
  <g
     id="g5">
    <title
       id="title2">background</title>
    <rect
       fill="none"
       id="canvas_background"
       height="402"
       width="582"
       y="-1"
       x="-1" />
  </g>
  <g
     id="g12">
    <title
       id="title7">Layer 1</title>
    <path
       fill="#0e6096"
       id="svg_1"
       d="m10.37,44.759998c-0.2,-0.039997 -0.4,-0.09 -0.59,-0.149998c0.190001,0.059998 0.39,0.110001 0.59,0.149998zm-0.97,-0.279999c-0.379999,-0.139999 -0.74,-0.310001 -1.089999,-0.5c0.349999,0.189999 0.71,0.360001 1.089999,0.5zm-1.089999,-0.5c-1.39,-0.75 -2.54,-1.899998 -3.3,-3.299999c0.76,1.400002 1.91,2.549999 3.3,3.299999zm-3.3,-3.299999c-0.19,-0.349998 -0.35,-0.709999 -0.49,-1.09c0.14,0.380001 0.3,0.740002 0.49,1.09zm-0.62,-1.470001c-0.06,-0.189999 -0.11,-0.379997 -0.16,-0.579998c0.05,0.200001 0.1,0.389999 0.16,0.579998zm7.68,-10.639999c0.1,-1.49 0.42,-2.93 0.91,-4.279999c-0.49,1.349998 -0.799999,2.789999 -0.9,4.279999l-0.01,0zm19.25,-13.82c1.41,-2.1 3.790001,-3.48 6.510002,-3.48c3.959999,0 7.239998,2.95 7.75,6.77c0.48,-0.060001 0.959999,-0.09 1.449997,-0.09c6.050003,0 10.950001,4.9 10.950001,10.949999c0,1.76 -0.419998,3.430002 -1.16,4.910002c-0.82,-0.440002 -1.759998,-0.68 -2.759998,-0.68c-0.66,-5.150002 -5.060001,-9.130001 -10.400002,-9.130001c-0.639999,0 -1.27,0.059999 -1.880001,0.17c-1.75,-4.610001 -5.639999,-8.15 -10.459999,-9.42z"
       class="fil0" />
    <path
       fill="#1ab5ed"
       id="svg_2"
       d="m12.22,44.970001c-4.53,0 -8.2,-3.670002 -8.2,-8.200001c0,-4.48 3.59,-8.120001 8.06,-8.200001c0.53,-8 7.190001,-14.33 15.32,-14.33c6.570002,0 12.180002,4.130001 14.370001,9.93c0.619999,-0.110001 1.25,-0.17 1.889999,-0.17c5.330002,0 9.740002,3.98 10.400002,9.130001c3.27,0 5.919998,2.649998 5.919998,5.919998c0,3.220001 -2.57,5.84 -5.77,5.920002c-14,0.199997 -27.99,0 -41.989999,0z"
       class="fil1" />
    <rect
       id="rect3731"
       width="15.254237"
       height="2.2372882"
       x="9.4244843"
       y="50.298271"
       ry="1.1186441"
       style="fill:#ffffff;fill-opacity:1" />
    <rect
       id="rect3731-3"
       width="15.254237"
       height="2.2372882"
       x="19.389418"
       y="57.034103"
       ry="1.1186441"
       style="fill:#ffffff;fill-opacity:1" />
    <rect
       id="rect3731-6"
       width="15.254237"
       height="2.2372882"
       x="32.546951"
       y="50.440674"
       ry="1.1186441"
       style="fill:#ffffff;fill-opacity:1" />
    <rect
       id="rect3731-7"
       width="15.254237"
       height="2.2372882"
       x="41.695908"
       y="57.095665"
       ry="1.1186441"
       style="fill:#ffffff;fill-opacity:1" />
  </g>
</svg>
