<svg width="64" height="64" xmlns="http://www.w3.org/2000/svg">

 <g>
  <title>background</title>
  <rect fill="none" id="canvas_background" height="402" width="582" y="-1" x="-1"/>
 </g>
 <g>
  <title>Layer 1</title>
  <path fill="#0e6096" id="svg_1" d="m10.37,44.759998c-0.2,-0.039997 -0.4,-0.09 -0.59,-0.149998c0.190001,0.059998 0.39,0.110001 0.59,0.149998zm-0.97,-0.279999c-0.379999,-0.139999 -0.74,-0.310001 -1.089999,-0.5c0.349999,0.189999 0.71,0.360001 1.089999,0.5zm-1.089999,-0.5c-1.39,-0.75 -2.54,-1.899998 -3.3,-3.299999c0.76,1.400002 1.91,2.549999 3.3,3.299999zm-3.3,-3.299999c-0.19,-0.349998 -0.35,-0.709999 -0.49,-1.09c0.14,0.380001 0.3,0.740002 0.49,1.09zm-0.62,-1.470001c-0.06,-0.189999 -0.11,-0.379997 -0.16,-0.579998c0.05,0.200001 0.1,0.389999 0.16,0.579998zm7.68,-10.639999c0.1,-1.49 0.42,-2.93 0.91,-4.279999c-0.49,1.349998 -0.799999,2.789999 -0.9,4.279999l-0.01,0zm19.25,-13.82c1.41,-2.1 3.790001,-3.48 6.510002,-3.48c3.959999,0 7.239998,2.95 7.75,6.77c0.48,-0.060001 0.959999,-0.09 1.449997,-0.09c6.050003,0 10.950001,4.9 10.950001,10.949999c0,1.76 -0.419998,3.430002 -1.16,4.910002c-0.82,-0.440002 -1.759998,-0.68 -2.759998,-0.68c-0.66,-5.150002 -5.060001,-9.130001 -10.400002,-9.130001c-0.639999,0 -1.27,0.059999 -1.880001,0.17c-1.75,-4.610001 -5.639999,-8.15 -10.459999,-9.42z" class="fil0"/>
  <path fill="#1ab5ed" id="svg_2" d="m12.22,44.970001c-4.53,0 -8.2,-3.670002 -8.2,-8.200001c0,-4.48 3.59,-8.120001 8.06,-8.200001c0.53,-8 7.190001,-14.33 15.32,-14.33c6.570002,0 12.180002,4.130001 14.370001,9.93c0.619999,-0.110001 1.25,-0.17 1.889999,-0.17c5.330002,0 9.740002,3.98 10.400002,9.130001c3.27,0 5.919998,2.649998 5.919998,5.919998c0,3.220001 -2.57,5.84 -5.77,5.920002c-14,0.199997 -27.99,0 -41.989999,0z" class="fil1"/>
  <path fill-rule="nonzero" fill="#ffffff" id="svg_3" d="m16.67,45.990002c-0.690001,0 -1.25,-0.560001 -1.25,-1.25c0,-0.690002 0.559999,-1.25 1.25,-1.25l3.719999,0l-2.629999,-2.630001c-0.49,-0.490002 -0.49,-1.279999 0,-1.77c0.49,-0.490002 1.280001,-0.490002 1.77,0l2.629999,2.630001l0,-3.720001c0,-0.689999 0.559999,-1.25 1.25,-1.25c0.690001,0 1.25,0.560001 1.25,1.25l0,3.720001l2.630001,-2.630001c0.49,-0.490002 1.279999,-0.490002 1.769999,0c0.480001,0.490002 0.480001,1.279999 0,1.77l-2.629999,2.630001l3.719999,0c0.690001,0 1.25,0.559998 1.25,1.25c0,0.689999 -0.559999,1.25 -1.25,1.25l-3.719999,0l2.629999,2.629997c0.480001,0.490002 0.480001,1.280003 0,1.77c-0.49,0.48 -1.279999,0.48 -1.769999,0l-2.630001,-2.639999l0,3.73c0,0.689999 -0.559999,1.25 -1.25,1.25c-0.690001,0 -1.25,-0.560001 -1.25,-1.25l0,-3.73l-2.629999,2.639999c-0.49,0.48 -1.280001,0.48 -1.77,0c-0.49,-0.489998 -0.49,-1.279999 0,-1.77l2.629999,-2.629997l-3.719999,0zm28.230001,-6.900002c0.489998,-0.490002 1.279999,-0.490002 1.769997,0c0.490002,0.490002 0.490002,1.279999 0,1.77l-2.629997,2.630001l3.719997,0c0.690002,0 1.25,0.559998 1.25,1.25c0,0.689999 -0.559998,1.25 -1.25,1.25l-3.719997,0l2.629997,2.629997c0.490002,0.490002 0.490002,1.280003 0,1.77c-0.489998,0.48 -1.279999,0.48 -1.769997,0l-2.630001,-2.639999l0,3.73c0,0.689999 -0.560001,1.25 -1.25,1.25c-0.689999,0 -1.25,-0.560001 -1.25,-1.25l0,-3.73l-2.630001,2.639999c-0.489998,0.48 -1.279999,0.48 -1.77,0c-0.48,-0.489998 -0.48,-1.279999 0,-1.77l2.639999,-2.629997l-3.73,0c-0.689999,0 -1.25,-0.560001 -1.25,-1.25c0,-0.690002 0.560001,-1.25 1.25,-1.25l3.73,0l-2.639999,-2.630001c-0.48,-0.490002 -0.48,-1.279999 0,-1.77c0.490002,-0.490002 1.280003,-0.490002 1.77,0l2.630001,2.630001l0,-3.720001c0,-0.689999 0.560001,-1.25 1.25,-1.25c0.689999,0 1.25,0.560001 1.25,1.25l0,3.720001l2.630001,-2.630001z" class="fil2"/>
 </g>
</svg>